<svg width="1004" height="263" viewBox="0 0 1004 263" fill="none" xmlns="http://www.w3.org/2000/svg">
<path d="M138.95 38.9069C127.585 20.7229 113.164 8.43527 97.5649 3.47056C81.9926 -1.48551 65.8392 1.04283 51.1057 10.8074C36.3501 20.5865 23.6688 37.1988 14.724 58.6176C5.78195 80.0301 1 105.23 1 131.027C0.999998 156.824 5.78194 182.024 14.724 203.436C23.6688 224.855 36.35 241.467 51.1056 251.247C65.8392 261.011 81.9925 263.54 97.5649 258.583C113.164 253.619 127.585 241.331 138.95 223.147" stroke="#3956BF" stroke-width="2"/>
<path d="M135.558 41.0269C124.544 23.4045 110.808 11.8829 96.3519 7.28217C82.0319 2.72469 67.1282 4.98732 53.3154 14.1416C39.3926 23.3688 27.1454 39.2539 18.4151 60.1591C9.69824 81.0322 5 105.701 5 131.027C5 156.353 9.69823 181.022 18.4151 201.895C27.1454 222.8 39.3926 238.685 53.3154 247.912C67.1281 257.067 82.0318 259.329 96.3518 254.772C110.808 250.171 124.544 238.65 135.558 221.027" stroke="#3956BF" stroke-width="10"/>
<path d="M305.817 189.973C298.152 189.973 291.027 188.646 284.443 185.993C277.957 183.241 272.209 179.458 267.197 174.642C262.283 169.729 258.451 164.078 255.699 157.691C253.046 151.205 251.719 144.228 251.719 136.759C251.719 129.291 253.046 122.363 255.699 115.975C258.451 109.489 262.283 103.839 267.197 99.0235C272.209 94.11 278.007 90.3266 284.591 87.6733C291.175 84.9217 298.25 83.5459 305.817 83.5459C311.222 83.5459 316.479 84.283 321.589 85.757C326.798 87.1328 331.564 89.1473 335.888 91.8006C340.31 94.4539 344.142 97.6477 347.385 101.382L337.067 111.995C333.234 107.376 328.567 103.888 323.063 101.529C317.56 99.0726 311.812 97.8443 305.817 97.8443C300.314 97.8443 295.204 98.827 290.487 100.792C285.868 102.758 281.839 105.509 278.4 109.047C274.96 112.487 272.258 116.565 270.292 121.282C268.425 125.999 267.492 131.158 267.492 136.759C267.492 142.262 268.425 147.372 270.292 152.089C272.258 156.806 275.009 160.934 278.547 164.472C282.085 168.009 286.212 170.761 290.929 172.726C295.646 174.692 300.756 175.674 306.259 175.674C312.254 175.674 317.904 174.495 323.211 172.137C328.616 169.68 333.185 166.24 336.92 161.818L347.091 172.137C343.651 175.773 339.72 178.966 335.298 181.718C330.974 184.371 326.257 186.435 321.147 187.909C316.135 189.285 311.025 189.973 305.817 189.973Z" fill="#333333"/>
<path d="M384.196 189.678C378.792 189.678 374.025 188.744 369.898 186.877C365.771 184.912 362.528 182.209 360.169 178.77C357.811 175.33 356.632 171.35 356.632 166.83C356.632 159.755 359.334 154.202 364.739 150.173C370.144 146.046 377.563 143.982 386.997 143.982C394.367 143.982 401.197 145.407 407.486 148.257V140.297C407.486 134.892 405.914 130.863 402.769 128.21C399.723 125.556 395.203 124.23 389.208 124.23C385.769 124.23 382.182 124.77 378.448 125.851C374.713 126.834 370.537 128.406 365.918 130.568L360.464 119.513C366.164 116.86 371.47 114.943 376.384 113.764C381.297 112.487 386.26 111.848 391.272 111.848C401.001 111.848 408.518 114.157 413.825 118.776C419.23 123.395 421.932 129.979 421.932 138.528V188.351H407.486V181.865C404.145 184.519 400.558 186.484 396.726 187.762C392.893 189.039 388.717 189.678 384.196 189.678ZM370.783 166.535C370.783 170.171 372.306 173.119 375.352 175.38C378.497 177.541 382.575 178.622 387.587 178.622C391.518 178.622 395.104 178.082 398.347 177.001C401.689 175.822 404.735 174.004 407.486 171.547V158.87C404.637 157.2 401.639 156.02 398.495 155.332C395.448 154.546 392.009 154.153 388.176 154.153C382.771 154.153 378.497 155.283 375.352 157.543C372.306 159.705 370.783 162.703 370.783 166.535Z" fill="#333333"/>
<path d="M438.917 188.351V85.1674L453.658 82.3667V188.351H438.917Z" fill="#333333"/>
<path d="M471.018 188.351V113.322H485.759V120.545C491.36 114.747 498.386 111.848 506.838 111.848C511.948 111.848 516.468 112.978 520.399 115.238C524.428 117.498 527.622 120.545 529.98 124.377C533.125 120.25 536.81 117.154 541.036 115.091C545.261 112.929 550.027 111.848 555.334 111.848C560.935 111.848 565.8 113.076 569.927 115.533C574.153 117.99 577.445 121.429 579.803 125.851C582.26 130.273 583.488 135.384 583.488 141.181V188.351H568.748V143.687C568.748 137.791 567.176 133.172 564.031 129.831C560.985 126.392 556.808 124.672 551.502 124.672C547.866 124.672 544.573 125.507 541.625 127.178C538.677 128.849 536.122 131.404 533.96 134.843C534.157 135.826 534.304 136.858 534.402 137.939C534.501 139.02 534.55 140.1 534.55 141.181V188.351H519.957V143.687C519.957 137.791 518.384 133.172 515.24 129.831C512.193 126.392 508.017 124.672 502.71 124.672C499.173 124.672 495.979 125.458 493.129 127.031C490.279 128.505 487.822 130.765 485.759 133.811V188.351H471.018Z" fill="#333333"/>
<path d="M635.66 189.678C628.486 189.678 621.951 187.958 616.055 184.519C610.158 181.079 605.491 176.411 602.051 170.515C598.71 164.619 597.039 158.035 597.039 150.763C597.039 143.491 598.759 136.956 602.199 131.158C605.638 125.262 610.257 120.594 616.055 117.154C621.951 113.617 628.486 111.848 635.66 111.848C641.359 111.848 646.813 112.929 652.022 115.091C657.328 117.253 661.898 120.299 665.73 124.23L656.591 134.401C653.741 131.256 650.548 128.898 647.01 127.325C643.472 125.753 639.787 124.967 635.954 124.967C631.434 124.967 627.307 126.097 623.572 128.357C619.936 130.617 617.037 133.713 614.875 137.644C612.714 141.575 611.633 145.948 611.633 150.763C611.633 155.578 612.714 159.951 614.875 163.882C617.037 167.813 619.985 170.957 623.72 173.316C627.454 175.576 631.631 176.706 636.249 176.706C640.082 176.706 643.669 175.969 647.01 174.495C650.351 172.923 653.496 170.663 656.444 167.714L665.436 177.148C661.505 181.177 656.935 184.273 651.727 186.435C646.617 188.597 641.261 189.678 635.66 189.678Z" fill="#333333"/>
<path d="M677.299 188.351V85.1674L692.04 82.3667V188.351H677.299Z" fill="#333333"/>
<path d="M733.133 189.678C727.728 189.678 722.962 188.744 718.834 186.877C714.707 184.912 711.464 182.209 709.105 178.77C706.747 175.33 705.568 171.35 705.568 166.83C705.568 159.755 708.27 154.202 713.675 150.173C719.08 146.046 726.499 143.982 735.933 143.982C743.304 143.982 750.133 145.407 756.423 148.257V140.297C756.423 134.892 754.85 130.863 751.706 128.21C748.659 125.556 744.139 124.23 738.144 124.23C734.705 124.23 731.118 124.77 727.384 125.851C723.649 126.834 719.473 128.406 714.854 130.568L709.4 119.513C715.1 116.86 720.407 114.943 725.32 113.764C730.234 112.487 735.196 111.848 740.208 111.848C749.937 111.848 757.454 114.157 762.761 118.776C768.166 123.395 770.868 129.979 770.868 138.528V188.351H756.423V181.865C753.081 184.519 749.495 186.484 745.662 187.762C741.829 189.039 737.653 189.678 733.133 189.678ZM719.719 166.535C719.719 170.171 721.242 173.119 724.288 175.38C727.433 177.541 731.511 178.622 736.523 178.622C740.454 178.622 744.041 178.082 747.283 177.001C750.625 175.822 753.671 174.004 756.423 171.547V158.87C753.573 157.2 750.576 156.02 747.431 155.332C744.385 154.546 740.945 154.153 737.113 154.153C731.708 154.153 727.433 155.283 724.288 157.543C721.242 159.705 719.719 162.703 719.719 166.535Z" fill="#333333"/>
<path d="M787.853 188.351V113.322H802.594V122.903C804.952 119.365 807.851 116.614 811.291 114.648C814.829 112.585 818.808 111.553 823.231 111.553C826.277 111.651 828.783 112.093 830.748 112.88V126.146C829.373 125.556 827.948 125.163 826.474 124.967C825 124.672 823.525 124.525 822.051 124.525C817.728 124.525 813.895 125.704 810.554 128.062C807.213 130.323 804.559 133.664 802.594 138.086V188.351H787.853Z" fill="#333333"/>
<path d="M842.555 188.351V113.322H857.295V188.351H842.555ZM849.925 101.235C847.468 101.235 845.355 100.35 843.586 98.5813C841.818 96.7142 840.933 94.5522 840.933 92.0955C840.933 89.5404 841.818 87.4276 843.586 85.757C845.355 83.9882 847.468 83.1037 849.925 83.1037C852.48 83.1037 854.642 83.9882 856.411 85.757C858.18 87.4276 859.064 89.5404 859.064 92.0955C859.064 94.5522 858.18 96.7142 856.411 98.5813C854.642 100.35 852.48 101.235 849.925 101.235Z" fill="#333333"/>
<path d="M906.79 189.678C899.518 189.678 893.966 188.007 890.133 184.666C886.301 181.227 884.384 176.264 884.384 169.778V125.704H868.465V113.322H884.384V94.1591L898.977 90.6214V113.322H921.088V125.704H898.977V166.388C898.977 170.22 899.813 172.972 901.483 174.642C903.252 176.215 906.102 177.001 910.033 177.001C912.097 177.001 913.915 176.854 915.487 176.559C917.157 176.264 918.926 175.822 920.793 175.232V187.614C918.828 188.302 916.519 188.793 913.865 189.088C911.31 189.481 908.952 189.678 906.79 189.678Z" fill="#333333"/>
<path d="M938.399 220.043C936.827 220.043 935.353 219.945 933.977 219.749C932.601 219.65 931.471 219.454 930.587 219.159V206.187C932.356 206.58 934.518 206.777 937.073 206.777C943.951 206.777 948.914 203.092 951.96 195.721L955.203 188.499L925.133 113.322H941.495L963.311 170.515L987.485 113.322H1003.4L967.143 197.638C964.785 202.944 962.279 207.219 959.626 210.462C956.972 213.803 953.926 216.211 950.486 217.685C947.047 219.257 943.018 220.043 938.399 220.043Z" fill="#333333"/>
</svg>
